<svg xmlns="http://www.w3.org/2000/svg" width="18" height="18" viewBox="0 0 18 18" fill="none">
  <path d="M5.40005 9.0002C5.40005 9.47759 5.21041 9.93542 4.87284 10.273C4.53528 10.6106 4.07744 10.8002 3.60005 10.8002C3.12266 10.8002 2.66482 10.6106 2.32726 10.273C1.98969 9.93542 1.80005 9.47759 1.80005 9.0002C1.80005 8.52281 1.98969 8.06497 2.32726 7.7274C2.66482 7.38984 3.12266 7.2002 3.60005 7.2002C4.07744 7.2002 4.53528 7.38984 4.87284 7.7274C5.21041 8.06497 5.40005 8.52281 5.40005 9.0002ZM10.8 9.0002C10.8 9.47759 10.6104 9.93542 10.2728 10.273C9.93528 10.6106 9.47744 10.8002 9.00005 10.8002C8.52266 10.8002 8.06482 10.6106 7.72726 10.273C7.38969 9.93542 7.20005 9.47759 7.20005 9.0002C7.20005 8.52281 7.38969 8.06497 7.72726 7.7274C8.06482 7.38984 8.52266 7.2002 9.00005 7.2002C9.47744 7.2002 9.93528 7.38984 10.2728 7.7274C10.6104 8.06497 10.8 8.52281 10.8 9.0002ZM14.4 10.8002C14.8774 10.8002 15.3353 10.6106 15.6728 10.273C16.0104 9.93542 16.2 9.47759 16.2 9.0002C16.2 8.52281 16.0104 8.06497 15.6728 7.7274C15.3353 7.38984 14.8774 7.2002 14.4 7.2002C13.9227 7.2002 13.4648 7.38984 13.1273 7.7274C12.7897 8.06497 12.6 8.52281 12.6 9.0002C12.6 9.47759 12.7897 9.93542 13.1273 10.273C13.4648 10.6106 13.9227 10.8002 14.4 10.8002Z" fill="#666C79"/>
</svg>